<svg width="127" height="24" viewBox="0 0 127 24" fill="none" xmlns="http://www.w3.org/2000/svg">
<g clip-path="url(#clip0)">
<path d="M2.296 14.602C2.296 13.09 2.602 11.767 3.214 10.633C3.826 9.481 4.663 8.599 5.725 7.987C6.805 7.357 8.02 7.042 9.37 7.042C10.666 7.042 11.836 7.357 12.88 7.987C13.924 8.617 14.689 9.436 15.175 10.444V2.02H17.065V22H15.175V18.706C14.725 19.732 13.987 20.578 12.961 21.244C11.935 21.892 10.729 22.216 9.343 22.216C7.993 22.216 6.778 21.901 5.698 21.271C4.636 20.641 3.799 19.75 3.187 18.598C2.593 17.446 2.296 16.114 2.296 14.602ZM15.175 14.629C15.175 13.441 14.932 12.397 14.446 11.497C13.96 10.597 13.294 9.904 12.448 9.418C11.62 8.932 10.702 8.689 9.694 8.689C8.65 8.689 7.714 8.923 6.886 9.391C6.058 9.859 5.401 10.543 4.915 11.443C4.447 12.325 4.213 13.378 4.213 14.602C4.213 15.808 4.447 16.87 4.915 17.788C5.401 18.688 6.058 19.381 6.886 19.867C7.714 20.335 8.65 20.569 9.694 20.569C10.702 20.569 11.62 20.326 12.448 19.84C13.294 19.354 13.96 18.661 14.446 17.761C14.932 16.861 15.175 15.817 15.175 14.629ZM35.5277 13.873C35.5277 14.521 35.5097 15.016 35.4737 15.358H23.2427C23.2967 16.474 23.5667 17.428 24.0527 18.22C24.5387 19.012 25.1777 19.615 25.9697 20.029C26.7617 20.425 27.6257 20.623 28.5617 20.623C29.7857 20.623 30.8117 20.326 31.6397 19.732C32.4857 19.138 33.0437 18.337 33.3137 17.329H35.3117C34.9517 18.769 34.1777 19.948 32.9897 20.866C31.8197 21.766 30.3437 22.216 28.5617 22.216C27.1757 22.216 25.9337 21.91 24.8357 21.298C23.7377 20.668 22.8737 19.786 22.2437 18.652C21.6317 17.5 21.3257 16.159 21.3257 14.629C21.3257 13.099 21.6317 11.758 22.2437 10.606C22.8557 9.454 23.7107 8.572 24.8087 7.96C25.9067 7.348 27.1577 7.042 28.5617 7.042C29.9657 7.042 31.1897 7.348 32.2337 7.96C33.2957 8.572 34.1057 9.4 34.6637 10.444C35.2397 11.47 35.5277 12.613 35.5277 13.873ZM33.6107 13.819C33.6287 12.721 33.4037 11.785 32.9357 11.011C32.4857 10.237 31.8647 9.652 31.0727 9.256C30.2807 8.86 29.4167 8.662 28.4807 8.662C27.0767 8.662 25.8797 9.112 24.8897 10.012C23.8997 10.912 23.3507 12.181 23.2427 13.819H33.6107ZM38.9316 14.602C38.9316 13.09 39.2286 11.767 39.8226 10.633C40.4346 9.481 41.2716 8.599 42.3336 7.987C43.4136 7.357 44.6286 7.042 45.9786 7.042C47.3826 7.042 48.5886 7.366 49.5966 8.014C50.6226 8.662 51.3606 9.49 51.8106 10.498V7.258H53.7006V22H51.8106V18.733C51.3426 19.741 50.5956 20.578 49.5696 21.244C48.5616 21.892 47.3556 22.216 45.9516 22.216C44.6196 22.216 43.4136 21.901 42.3336 21.271C41.2716 20.641 40.4346 19.75 39.8226 18.598C39.2286 17.446 38.9316 16.114 38.9316 14.602ZM51.8106 14.629C51.8106 13.441 51.5676 12.397 51.0816 11.497C50.5956 10.597 49.9296 9.904 49.0836 9.418C48.2556 8.932 47.3376 8.689 46.3296 8.689C45.2856 8.689 44.3496 8.923 43.5216 9.391C42.6936 9.859 42.0366 10.543 41.5506 11.443C41.0826 12.325 40.8486 13.378 40.8486 14.602C40.8486 15.808 41.0826 16.87 41.5506 17.788C42.0366 18.688 42.6936 19.381 43.5216 19.867C44.3496 20.335 45.2856 20.569 46.3296 20.569C47.3376 20.569 48.2556 20.326 49.0836 19.84C49.9296 19.354 50.5956 18.661 51.0816 17.761C51.5676 16.861 51.8106 15.817 51.8106 14.629ZM60.7154 9.877C61.1294 8.959 61.7594 8.248 62.6054 7.744C63.4694 7.24 64.5224 6.988 65.7644 6.988V8.959H65.2514C63.8834 8.959 62.7854 9.328 61.9574 10.066C61.1294 10.804 60.7154 12.037 60.7154 13.765V22H58.8254V7.258H60.7154V9.877ZM69.7416 22.135C69.3456 22.135 69.0126 22 68.7426 21.73C68.4906 21.46 68.3646 21.127 68.3646 20.731C68.3646 20.335 68.4906 20.011 68.7426 19.759C69.0126 19.489 69.3456 19.354 69.7416 19.354C70.1196 19.354 70.4346 19.489 70.6866 19.759C70.9566 20.011 71.0916 20.335 71.0916 20.731C71.0916 21.127 70.9566 21.46 70.6866 21.73C70.4346 22 70.1196 22.135 69.7416 22.135ZM76.0769 4.477C75.6989 4.477 75.3749 4.342 75.1049 4.072C74.8349 3.802 74.6999 3.469 74.6999 3.073C74.6999 2.677 74.8349 2.353 75.1049 2.101C75.3749 1.831 75.6989 1.696 76.0769 1.696C76.4549 1.696 76.7789 1.831 77.0489 2.101C77.3189 2.353 77.4539 2.677 77.4539 3.073C77.4539 3.469 77.3189 3.802 77.0489 4.072C76.7789 4.342 76.4549 4.477 76.0769 4.477ZM77.0219 7.258V22H75.1319V7.258H77.0219ZM88.5648 22.216C87.1788 22.216 85.9278 21.91 84.8118 21.298C83.7138 20.668 82.8408 19.786 82.1928 18.652C81.5628 17.5 81.2478 16.159 81.2478 14.629C81.2478 13.099 81.5718 11.767 82.2198 10.633C82.8678 9.481 83.7498 8.599 84.8658 7.987C85.9818 7.357 87.2328 7.042 88.6188 7.042C90.0048 7.042 91.2558 7.357 92.3718 7.987C93.5058 8.599 94.3878 9.481 95.0178 10.633C95.6658 11.767 95.9898 13.099 95.9898 14.629C95.9898 16.141 95.6658 17.473 95.0178 18.625C94.3698 19.777 93.4788 20.668 92.3448 21.298C91.2108 21.91 89.9508 22.216 88.5648 22.216ZM88.5648 20.569C89.5368 20.569 90.4368 20.353 91.2648 19.921C92.0928 19.471 92.7588 18.805 93.2628 17.923C93.7848 17.023 94.0458 15.925 94.0458 14.629C94.0458 13.333 93.7938 12.244 93.2898 11.362C92.7858 10.462 92.1198 9.796 91.2918 9.364C90.4638 8.914 89.5638 8.689 88.5918 8.689C87.6198 8.689 86.7198 8.914 85.8918 9.364C85.0638 9.796 84.3978 10.462 83.8938 11.362C83.4078 12.244 83.1648 13.333 83.1648 14.629C83.1648 15.925 83.4078 17.023 83.8938 17.923C84.3978 18.805 85.0548 19.471 85.8648 19.921C86.6928 20.353 87.5928 20.569 88.5648 20.569Z" fill="white"/>
<path d="M120.513 2C121.535 2 122.364 2.87362 122.364 3.95078V22.7L115.818 18.1L109.273 22.7V4.3C109.273 3.035 108.291 2 107.091 2H120.513Z" fill="#DD352E"/>
<path d="M107.124 2.0016C108.309 2.02039 109.273 3.04619 109.273 4.29969V10.8164H105.273V3.9681C105.273 2.8871 106.1 2.01119 107.124 2.0016Z" fill="#B02721"/>
</g>
<defs>
<clipPath id="clip0">
<rect width="127" height="24" fill="white"/>
</clipPath>
</defs>
</svg>
